<svg width="44" height="44" viewBox="0 0 44 44" fill="none" xmlns="http://www.w3.org/2000/svg">
<g clip-path="url(#clip0_1846_849)">
<path d="M42.8514 7.69287H1.38698C0.764693 7.69287 0.261597 8.19674 0.261597 8.81826V34.898C0.261597 35.5195 0.764693 36.0234 1.38698 36.0234H42.8514C43.4737 36.0234 43.9768 35.5195 43.9768 34.898V8.81826C43.9768 8.19674 43.4737 7.69287 42.8514 7.69287ZM40.6517 20.3206L40.0487 20.8647L39.5046 20.2602L40.1083 19.7161L40.6517 20.3206ZM37.5464 19.7935L36.7299 18.8864L37.637 18.0698L38.4536 18.9769L37.5464 19.7935ZM38.4721 19.8933L39.2895 20.7997L38.3823 21.6162L37.5658 20.7099L38.4721 19.8933ZM36.8088 19.593L35.5998 20.6813L34.5124 19.4723L35.7214 18.384L36.8088 19.593ZM36.5851 20.4467L37.6734 21.6557L36.4644 22.7432L35.3761 21.5342L36.5851 20.4467ZM37.445 22.5365L38.5333 23.7455L37.3243 24.8353L36.2361 23.6263L37.445 22.5365ZM38.3405 22.6255L39.2477 21.8082L40.065 22.7153L39.1579 23.5319L38.3405 22.6255ZM39.8808 18.5234L39.2763 19.0675L38.7322 18.463L39.3367 17.9189L39.8808 18.5234ZM6.60061 23.8748H5.97367L5.18497 20.9808H5.14395L4.37847 23.8748H3.75153L2.81191 19.7633H3.46206L4.11144 22.8314H4.15246L4.90633 19.7633H5.42259L6.22909 22.8314H6.27011L6.86222 19.7633H7.54101L6.60061 23.8748ZM10.1981 22.5365H8.30804C8.30804 23.2316 8.59209 23.5404 9.18962 23.5404C9.50231 23.5404 9.79256 23.4297 10.1114 23.2385V23.6789C9.85061 23.8291 9.50231 23.946 9.08513 23.946C8.11067 23.946 7.71051 23.343 7.71051 22.4258C7.71051 21.5443 8.15711 20.9073 9.02708 20.9073C9.75231 20.9073 10.1989 21.3771 10.1989 22.3237L10.1981 22.5365ZM11.8568 23.9452C11.5495 23.9452 11.0735 23.8461 10.7252 23.6611V19.6132L11.3282 19.4684V21.1217C11.5031 21.0288 11.798 20.9073 12.1122 20.9073C12.8313 20.9073 13.2198 21.4065 13.2198 22.3345C13.2198 23.4189 12.6981 23.9452 11.8568 23.9452ZM17.8498 23.8748H17.8483H17.2221V20.8933H17.1703L15.9868 23.8748H15.6161L14.4326 20.963H14.3808V23.8748H13.8591V19.7633H14.5604L15.8599 23.0056H15.8893L17.1308 19.7633H17.8498V23.8748ZM19.8096 23.9452C19.0155 23.9452 18.4868 23.4166 18.4868 22.4251C18.4868 21.4096 19.0441 20.9065 19.8096 20.9065C20.5751 20.9065 21.1323 21.4111 21.1323 22.4251C21.1323 23.4189 20.6045 23.9452 19.8096 23.9452ZM24.1192 23.8748H23.5162V21.908C23.5162 21.4506 23.291 21.3693 22.9938 21.3693C22.7616 21.3693 22.4659 21.4738 22.2864 21.5783V23.8748H21.6834V21.3345C21.9443 21.1782 22.4953 20.9057 23.1625 20.9057C23.8583 20.9057 24.1192 21.1782 24.1192 21.7757V23.8748ZM27.147 22.5365H25.2562C25.2562 23.2316 25.5402 23.5404 26.1393 23.5404C26.452 23.5404 26.7422 23.4297 27.0604 23.2385V23.6789C26.7987 23.8291 26.452 23.946 26.0333 23.946C25.0588 23.946 24.6602 23.343 24.6602 22.4258C24.6602 21.5443 25.1068 20.9073 25.976 20.9073C26.702 20.9073 27.1486 21.3771 27.1486 22.3237L27.147 22.5365ZM28.9737 23.9049C28.6834 24.7045 28.3297 25.1224 27.6641 25.1224V24.6472C28.0588 24.6472 28.3011 24.3345 28.4412 23.9049L27.3282 21.004H27.9659L28.7082 23.1387H28.743L29.404 21.004H30.0248L28.9737 23.9049ZM38.8088 26.2788C38.0696 26.7006 37.2128 26.9413 36.3034 26.9413C33.5039 26.9413 31.2198 24.658 31.2198 21.8585C31.2198 19.059 33.5039 16.7749 36.3034 16.7749C37.1006 16.7749 37.8576 16.9607 38.5309 17.2904C38.637 17.3407 38.7422 17.3964 38.8467 17.4568L38.3792 17.8755L37.6765 17.1488L36.4899 18.2076L35.7864 17.4382L33.5751 19.4305L34.9922 20.9932L34.435 21.4823L35.8313 23.0466L35.2771 23.5358L37.2724 25.7563L38.4551 24.6666L39.4783 25.8353C39.2755 25.9916 39.0542 26.1402 38.8088 26.2788ZM39.9551 25.3624L39.1378 24.4568L40.0449 23.6395L40.8614 24.5458L39.9551 25.3624ZM40.8204 22.6596L40.2763 22.0551L40.8808 21.511L41.4249 22.1155L40.8204 22.6596Z" fill="white"/>
<path d="M19.8096 21.3125C19.4272 21.3125 19.0959 21.6422 19.0959 22.4255C19.0959 23.2204 19.3978 23.5393 19.8096 23.5393C20.2213 23.5393 20.5232 23.2204 20.5232 22.4255C20.5232 21.6414 20.2035 21.3125 19.8096 21.3125Z" fill="white"/>
<path d="M11.9551 21.3589C11.7244 21.3589 11.5557 21.4224 11.3235 21.5501V23.4471C11.5092 23.5284 11.7113 23.54 11.8568 23.54C12.2863 23.54 12.6114 23.273 12.6114 22.3333C12.6114 21.5965 12.3436 21.3589 11.9551 21.3589Z" fill="white"/>
<path d="M25.9582 21.2949C25.6037 21.2949 25.3313 21.5674 25.2662 22.1471H26.596C26.5673 21.5387 26.2709 21.2949 25.9582 21.2949Z" fill="white"/>
<path d="M9.00925 21.2949C8.65554 21.2949 8.38232 21.5674 8.31885 22.1471H9.64702C9.61838 21.5387 9.32272 21.2949 9.00925 21.2949Z" fill="white"/>
</g>
<defs>
<clipPath id="clip0_1846_849">
<rect width="43.7152" height="43.7152" fill="white" transform="translate(0.261597)"/>
</clipPath>
</defs>
</svg>
